<svg width="38" height="40" viewBox="0 0 38 40" fill="none" xmlns="http://www.w3.org/2000/svg">
<path d="M15.3901 32.3164C18.7059 32.3164 21.8021 31.1862 24.3189 29.3029L33.7871 39.2219C34.2266 39.6824 34.8059 39.9126 35.4052 39.9126C36.7034 39.9126 37.6423 38.8662 37.6423 37.5269C37.6423 36.8993 37.4425 36.3133 37.0032 35.8529L27.5948 25.9757C29.5725 23.2552 30.7509 19.8859 30.7509 16.2239C30.7509 7.37211 23.8396 0.131592 15.3901 0.131592C6.92061 0.131592 0.0291748 7.37211 0.0291748 16.2239C0.0291748 25.0757 6.92061 32.3164 15.3901 32.3164ZM15.3901 28.8426C8.77829 28.8426 3.34504 23.1298 3.34504 16.2239C3.34504 9.31826 8.77829 3.60538 15.3901 3.60538C21.9818 3.60538 27.435 9.31826 27.435 16.2239C27.435 23.1298 21.9818 28.8426 15.3901 28.8426Z" fill="white"/>
</svg>
