<svg width="63" height="59" viewBox="0 0 63 59" fill="none" xmlns="http://www.w3.org/2000/svg">
<path d="M31.5009 8.38672C25.2793 8.38672 24.4985 8.41154 22.055 8.51298C19.6162 8.61485 17.9515 8.96706 16.4949 9.48384C14.9882 10.0176 13.7101 10.7316 12.4368 11.8936C11.1625 13.0551 10.3798 14.2211 9.79279 15.5951C9.22485 16.9242 8.83827 18.4432 8.7285 20.6671C8.61921 22.8962 8.59058 23.6089 8.59058 29.2843C8.59058 34.9597 8.61826 35.6698 8.72898 37.8989C8.84114 40.1236 9.22724 41.6421 9.79327 42.9709C10.3789 44.3453 11.1616 45.5112 12.4354 46.6728C13.7082 47.8352 14.9863 48.551 16.4921 49.0847C17.9496 49.6015 19.6148 49.9537 22.0531 50.0556C24.4966 50.157 25.277 50.1819 31.498 50.1819C37.72 50.1819 38.4984 50.157 40.942 50.0556C43.3808 49.9537 45.0474 49.6015 46.5049 49.0847C48.0112 48.551 49.2873 47.8352 50.5602 46.6728C51.8345 45.5112 52.6172 44.3453 53.2042 42.9713C53.7674 41.6421 54.1539 40.1232 54.2685 37.8993C54.3783 35.6702 54.4069 34.9597 54.4069 29.2843C54.4069 23.6089 54.3783 22.8966 54.2685 20.6675C54.1539 18.4428 53.7674 16.9242 53.2042 15.5955C52.6172 14.2211 51.8345 13.0551 50.5602 11.8936C49.2859 10.7312 48.0116 10.0172 46.5035 9.48384C45.0431 8.96706 43.3775 8.61485 40.9387 8.51298C38.4951 8.41154 37.7172 8.38672 31.4937 8.38672H31.5009ZM29.4458 12.1526C30.0557 12.1518 30.7363 12.1526 31.5009 12.1526C37.6174 12.1526 38.3424 12.1727 40.7578 12.2728C42.9914 12.366 44.2036 12.7064 45.0111 12.9925C46.0802 13.3712 46.8423 13.824 47.6437 14.5554C48.4455 15.2868 48.9418 15.9834 49.358 16.9586C49.6715 17.6944 50.0452 18.8002 50.1469 20.8377C50.2567 23.0407 50.2805 23.7025 50.2805 29.2795C50.2805 34.8565 50.2567 35.5183 50.1469 37.7212C50.0447 39.7588 49.6715 40.8646 49.358 41.6004C48.9428 42.5756 48.4455 43.27 47.6437 44.001C46.8419 44.7324 46.0806 45.1852 45.0111 45.5639C44.2045 45.8513 42.9914 46.1908 40.7578 46.284C38.3429 46.3842 37.6174 46.4059 31.5009 46.4059C25.3839 46.4059 24.6589 46.3842 22.244 46.284C20.0104 46.19 18.7982 45.8495 17.9902 45.5635C16.9211 45.1847 16.1575 44.7319 15.3557 44.0005C14.5539 43.2691 14.0576 42.5743 13.6414 41.5986C13.3278 40.8628 12.9541 39.757 12.8525 37.7195C12.7427 35.5165 12.7208 34.8548 12.7208 29.2743C12.7208 23.6937 12.7427 23.0355 12.8525 20.8325C12.9546 18.795 13.3278 17.6892 13.6414 16.9525C14.0566 15.9773 14.5539 15.2807 15.3557 14.5493C16.1575 13.8179 16.9211 13.3651 17.9902 12.9855C18.7977 12.6981 20.0104 12.3586 22.244 12.265C24.3573 12.1779 25.1763 12.1518 29.4458 12.1474V12.1526ZM43.7292 15.6225C42.2115 15.6225 40.9802 16.7444 40.9802 18.1293C40.9802 19.5138 42.2115 20.637 43.7292 20.637C45.2469 20.637 46.4782 19.5138 46.4782 18.1293C46.4782 16.7449 45.2469 15.6216 43.7292 15.6216V15.6225ZM31.5009 18.5525C25.004 18.5525 19.7365 23.3576 19.7365 29.2843C19.7365 35.2109 25.004 40.0139 31.5009 40.0139C37.9978 40.0139 43.2634 35.2109 43.2634 29.2843C43.2634 23.3576 37.9973 18.5525 31.5004 18.5525H31.5009ZM31.5009 22.3184C35.7179 22.3184 39.137 25.437 39.137 29.2843C39.137 33.1312 35.7179 36.2501 31.5009 36.2501C27.2833 36.2501 23.8647 33.1312 23.8647 29.2843C23.8647 25.437 27.2833 22.3184 31.5009 22.3184Z" fill="white"/>
</svg>
